<svg width="32" height="32" viewBox="0 0 32 32" fill="none" xmlns="http://www.w3.org/2000/svg">
<path d="M23.39 30.19C22.1716 30.1898 20.9785 29.8429 19.95 29.19C13.0518 24.8008 7.2022 18.9495 2.81499 12.05C2.02817 10.8211 1.68634 9.3598 1.84647 7.90945C2.00661 6.45915 2.65904 5.10755 3.69499 4.07998L5.235 2.54498C5.53035 2.24927 5.88105 2.01468 6.26715 1.85462C6.6532 1.69456 7.06705 1.61218 7.485 1.61218C7.90295 1.61218 8.31675 1.69456 8.70285 1.85462C9.0889 2.01468 9.43965 2.24927 9.735 2.54498L11.935 4.74498C12.5404 5.35455 12.9071 6.16095 12.9686 7.01785C13.03 7.87475 12.7822 8.72525 12.27 9.415L11.565 10.36C11.3139 10.6988 11.192 11.1162 11.2213 11.537C11.2506 11.9578 11.4293 12.3542 11.725 12.655L19.755 20.685C20.0551 20.9814 20.4513 21.161 20.872 21.1912C21.2928 21.2215 21.7105 21.1005 22.05 20.85L23 20.14C23.6897 19.6278 24.5403 19.3799 25.3971 19.4414C26.254 19.5029 27.0604 19.8696 27.67 20.475L29.46 22.265C29.7557 22.5603 29.9903 22.911 30.1504 23.2971C30.3104 23.6832 30.3928 24.097 30.3928 24.515C30.3928 24.9329 30.3104 25.3467 30.1504 25.7328C29.9903 26.1189 29.7557 26.4696 29.46 26.765L27.925 28.305C27.3307 28.9027 26.6242 29.377 25.8458 29.7005C25.0675 30.024 24.2328 30.1904 23.39 30.19ZM3.88999 11.385C8.1737 18.1223 13.8828 23.8382 20.615 28.13C21.605 28.7635 22.7822 29.0386 23.9505 28.9094C25.1187 28.7802 26.2073 28.2545 27.035 27.42L28.575 25.88C28.9359 25.5173 29.1385 25.0266 29.1385 24.515C29.1385 24.0034 28.9359 23.5126 28.575 23.15L26.78 21.36C26.384 20.9665 25.8601 20.728 25.3032 20.6877C24.7464 20.6473 24.1937 20.8078 23.745 21.14L22.8 21.85C22.2195 22.2804 21.504 22.4889 20.7831 22.4375C20.0623 22.3862 19.3836 22.0784 18.87 21.57L10.87 13.54C10.3569 13.029 10.0459 12.3497 9.9944 11.6274C9.94295 10.9051 10.1545 10.1885 10.59 9.61L11.295 8.665C11.6282 8.2167 11.7893 7.6637 11.7489 7.1066C11.7085 6.54955 11.4694 6.0255 11.075 5.63L8.85 3.42498C8.4874 3.06408 7.9966 2.86148 7.485 2.86148C6.9734 2.86148 6.4826 3.06408 6.12 3.42498L4.57999 4.96498C3.74546 5.79265 3.21979 6.8813 3.09059 8.04955C2.9614 9.21775 3.23648 10.395 3.86999 11.385H3.88999Z" fill="white"/>
</svg>
